<?xml version="1.0" standalone="no"?>
<!DOCTYPE svg PUBLIC "-//W3C//DTD SVG 20010904//EN"
 "http://www.w3.org/TR/2001/REC-SVG-20010904/DTD/svg10.dtd">
<svg version="1.0" xmlns="http://www.w3.org/2000/svg"
 width="6440.000000pt" height="2411.000000pt" viewBox="0 0 6440.000000 2411.000000"
 preserveAspectRatio="xMidYMid meet">

<g transform="translate(0.000000,2411.000000) scale(0.100000,-0.100000)"
fill="#000000" stroke="none">
<path d="M12560 13640 l0 -4220 395 0 395 0 0 1398 c0 1538 7 1797 56 2192 68
546 293 993 685 1364 344 325 719 504 1164 557 124 15 449 6 560 -14 339 -63
563 -175 770 -382 111 -110 199 -238 275 -398 101 -212 157 -414 184 -662 37
-327 39 -436 43 -2252 l4 -1803 390 0 390 0 -4 1853 c-4 1918 -4 1917 -47
2277 -62 512 -173 852 -377 1165 -324 494 -836 822 -1438 922 -169 28 -622 25
-795 -5 -687 -118 -1261 -473 -1760 -1085 l-95 -116 -3 1714 -2 1715 -395 0
-395 0 0 -4220z"/>
<path d="M45700 17849 c-1040 -65 -2018 -481 -2791 -1185 -645 -588 -1086
-1403 -1233 -2279 -55 -332 -61 -411 -61 -845 1 -437 12 -587 71 -910 176
-975 630 -1768 1389 -2425 513 -445 1196 -769 1895 -899 405 -75 819 -104
1240 -86 1183 52 2017 398 2970 1234 163 143 360 328 360 338 0 4 -237 255
-527 557 l-526 550 -109 -102 c-722 -675 -1210 -941 -1923 -1047 -183 -27
-531 -37 -715 -21 -545 49 -980 198 -1405 483 -462 310 -811 768 -997 1308
-218 633 -219 1391 -2 2012 52 148 190 424 281 560 103 153 268 351 396 474
540 520 1181 773 1957 774 880 0 1666 -347 2390 -1057 l125 -122 510 485 c281
267 527 502 548 523 l38 37 -139 150 c-560 603 -1295 1058 -2102 1302 -522
158 -1099 225 -1640 191z"/>
<path d="M7000 16880 l0 -770 730 0 730 0 0 -3345 0 -3345 800 0 800 0 0 3345
0 3345 750 0 750 0 0 770 0 770 -2280 0 -2280 0 0 -770z"/>
<path d="M22121 17628 c-5 -13 -373 -968 -819 -2123 -446 -1155 -1153 -2989
-1572 -4075 -420 -1086 -765 -1983 -767 -1992 -5 -17 38 -18 808 -18 l814 0
314 798 c173 438 325 821 337 850 l23 52 1677 -2 1677 -3 321 -847 321 -848
813 0 c446 0 812 3 812 8 0 4 -711 1855 -1579 4112 l-1579 4105 -796 3 -796 2
-9 -22z m1359 -3568 c298 -767 545 -1401 547 -1407 4 -10 -218 -13 -1092 -13
l-1097 0 4 23 c4 18 300 776 978 2510 62 158 114 286 116 285 1 -2 246 -631
544 -1398z"/>
<path d="M30595 15644 c-275 -37 -494 -104 -751 -230 -354 -174 -665 -448
-958 -846 -39 -54 -74 -97 -78 -98 -5 0 -8 234 -8 520 l0 520 -390 0 -390 0 0
-3045 0 -3045 390 0 390 0 0 1343 c0 738 5 1455 10 1592 28 692 111 1127 282
1472 116 237 286 462 458 608 300 256 605 400 960 451 151 22 422 15 558 -15
356 -76 637 -267 831 -561 164 -251 231 -555 261 -1200 6 -126 10 -934 10
-1952 l0 -1738 397 0 396 0 -6 1161 c-5 1132 1 1743 23 2025 50 663 146 1045
341 1372 283 472 736 795 1259 897 130 26 428 31 568 11 302 -45 555 -168 757
-371 230 -230 331 -471 379 -910 33 -293 36 -490 36 -2332 l0 -1853 406 0 406
0 -6 1843 c-8 2112 -11 2187 -87 2642 -124 741 -494 1273 -1084 1560 -171 83
-321 132 -535 172 -137 25 -593 25 -730 0 -364 -69 -649 -183 -945 -380 -331
-221 -642 -562 -869 -954 -26 -46 -51 -83 -54 -83 -4 0 -32 64 -62 143 -205
531 -475 849 -912 1072 -203 105 -439 178 -666 210 -139 19 -446 18 -587 -1z"/>
<path d="M53375 15644 c-594 -67 -1098 -274 -1565 -642 -126 -100 -405 -380
-514 -517 -365 -459 -590 -971 -670 -1525 -41 -282 -46 -671 -12 -936 71 -549
272 -1048 602 -1491 473 -636 1061 -1028 1779 -1187 653 -144 1399 -95 1973
130 399 156 761 403 1066 727 510 542 788 1123 882 1843 25 184 25 619 1 809
-90 712 -368 1307 -854 1827 -497 532 -1076 838 -1798 949 -186 28 -690 36
-890 13z m720 -769 c408 -58 786 -223 1112 -486 43 -34 141 -126 218 -203 382
-383 606 -823 692 -1358 26 -162 26 -627 0 -778 -73 -425 -233 -807 -470
-1122 -364 -484 -891 -795 -1514 -893 -138 -22 -452 -30 -605 -16 -1004 94
-1803 782 -2063 1775 -106 405 -108 867 -5 1276 107 426 319 796 644 1123 412
417 892 647 1451 697 129 11 412 4 540 -15z"/>
<path d="M39503 10639 c-211 -35 -423 -211 -506 -419 -56 -143 -62 -336 -14
-485 66 -203 239 -372 452 -441 68 -23 98 -26 200 -26 102 0 132 3 200 26 110
35 197 88 280 171 133 132 195 272 202 460 6 138 -12 231 -66 340 -138 278
-434 426 -748 374z"/>
</g>
</svg>
